<?xml version="1.0" encoding="UTF-8" standalone="no"?>
<!-- Created with Inkscape (http://www.inkscape.org/) -->

<svg
   width="15.853674mm"
   height="15.305372mm"
   viewBox="0 0 15.853674 15.305372"
   version="1.1"
   id="svg5"
   inkscape:version="1.2.2 (b0a8486541, 2022-12-01)"
   sodipodi:docname="getarr.svg"
   xmlns:inkscape="http://www.inkscape.org/namespaces/inkscape"
   xmlns:sodipodi="http://sodipodi.sourceforge.net/DTD/sodipodi-0.dtd"
   xmlns="http://www.w3.org/2000/svg"
   xmlns:svg="http://www.w3.org/2000/svg">
  <sodipodi:namedview
     id="namedview7"
     pagecolor="#ffffff"
     bordercolor="#000000"
     borderopacity="0.25"
     inkscape:showpageshadow="2"
     inkscape:pageopacity="0.0"
     inkscape:pagecheckerboard="0"
     inkscape:deskcolor="#d1d1d1"
     inkscape:document-units="mm"
     showgrid="false"
     inkscape:zoom="4.5427908"
     inkscape:cx="91.573663"
     inkscape:cy="127.23456"
     inkscape:window-width="1920"
     inkscape:window-height="1012"
     inkscape:window-x="0"
     inkscape:window-y="40"
     inkscape:window-maximized="1"
     inkscape:current-layer="layer1" />
  <defs
     id="defs2" />
  <g
     inkscape:label="Layer 1"
     inkscape:groupmode="layer"
     id="layer1">
    <g
       id="g1520"
       inkscape:export-filename="g1520.svg"
       inkscape:export-xdpi="96"
       inkscape:export-ydpi="96"
       transform="translate(-1.9187174,-27.529825)">
      <ellipse
         style="fill:#000000;stroke-width:0.211"
         id="path1456"
         cx="9.8455544"
         cy="35.18251"
         rx="7.926837"
         ry="7.6526856" />
      <g
         id="g1402"
         transform="translate(-13.168665,-2.2146134)"
         style="fill:#ffffff">
        <g
           aria-label="G"
           id="g1388"
           style="font-size:14.7046px;-inkscape-font-specification:'sans-serif, Normal';text-align:center;text-anchor:middle;fill:#ffffff;stroke-width:0.387834">
          <path
             d="m 26.559657,34.906742 h 0.455842 c 0,-0.764639 0.08823,-1.426346 0.294092,-2.235099 -1.63221,-0.470547 -2.382145,-0.602889 -3.543808,-0.602889 -3.808492,0 -5.502782,1.808666 -5.502782,5.087792 0,3.161489 1.606333,5.56895 5.047209,5.56895 1.044027,0 1.940737,-0.128248 3.940563,-0.687023 l -0.07352,-3.064805 c -0.01128,-0.470412 0.0147,-0.485252 0.16175,-0.544071 l 0.426434,-0.147046 -0.05882,-0.367615 c -0.882276,0.02941 -1.308709,0.02941 -1.808665,0.02941 -0.499957,0 -0.896981,0 -1.793962,-0.02941 v 0.441138 l 1.220482,0.102933 c 0.38232,0.02941 0.487488,0.16197 0.499957,0.514661 l 0.07352,2.079597 c 0.01247,0.352691 -0.02941,0.529366 -0.08823,0.647003 -0.161751,0.264682 -1.029322,0.470547 -1.999826,0.470547 -2.94092,0 -4.778995,-1.941007 -4.778995,-5.014269 0,-2.823283 1.588097,-4.470198 4.352562,-4.470198 0.749935,0 1.396937,0.08823 1.955712,0.264682 0.852867,0.279388 1.220482,0.617594 1.220482,1.176369 z"
             style="font-family:P052;-inkscape-font-specification:'P052, Normal';fill:#ffffff"
             id="path1386"
             sodipodi:nodetypes="cccssscscccscccsscssscsc" />
        </g>
        <g
           id="g1400"
           transform="matrix(0.81131829,0,0,0.81131829,5.7951912,7.1572364)"
           style="fill:#ffffff">
          <path
             id="path1390"
             style="fill:#ffffff;stroke-width:0.106496"
             d="m 19.471268,36.891402 h 4.234154 v 1.847497 h -4.234154 z" />
          <path
             id="path1392"
             style="fill:#ffffff;stroke-width:0.0771824"
             d="m 19.471268,35.231941 h 4.234154 v 0.970405 h -4.234154 z" />
          <path
             id="path1394"
             style="fill:#ffffff;stroke-width:0.0417496"
             d="m 19.471268,34.258951 h 4.234154 v 0.283935 h -4.234154 z" />
          <path
             id="path1396"
             style="fill:#ffffff;stroke-width:0.0417496"
             d="m 19.471268,33.285959 h 4.234154 v 0.283936 h -4.234154 z" />
          <path
             id="path1398"
             style="fill:#ffffff;stroke-width:0.211"
             d="M 25.73025,38.093217 21.588345,42.235121 17.44644,38.093217 Z"
             sodipodi:nodetypes="cccc" />
        </g>
      </g>
    </g>
  </g>
</svg>
